<?xml version="1.0" standalone="no"?>
<!DOCTYPE svg PUBLIC "-//W3C//DTD SVG 20010904//EN"
 "http://www.w3.org/TR/2001/REC-SVG-20010904/DTD/svg10.dtd">
<svg version="1.0" xmlns="http://www.w3.org/2000/svg"
 width="1002.000000pt" height="1041.000000pt" viewBox="0 0 1002.000000 1041.000000"
 preserveAspectRatio="xMidYMid meet">
<metadata>
Created by potrace 1.16, written by Peter Selinger 2001-2019
</metadata>
<g transform="translate(0.000000,1041.000000) scale(0.100000,-0.100000)"
fill="#000000" stroke="none">
<path d="M735 10398 c-2 -7 -65 -515 -140 -1128 -75 -613 -239 -1951 -366
-2973 -126 -1022 -229 -1880 -229 -1907 l0 -50 345 0 c190 0 345 4 345 9 0 4
124 1023 275 2262 172 1405 279 2318 285 2423 5 93 11 170 13 172 2 2 79 -193
172 -433 185 -483 849 -2215 1117 -2913 94 -245 181 -466 193 -491 13 -25 40
-60 60 -77 60 -54 95 -63 240 -64 161 0 223 19 294 91 26 26 116 159 201 297
764 1234 2226 3581 2229 3579 2 -2 -6 -48 -17 -102 -32 -153 -27 -115 -317
-2468 l-275 -2230 -56 -145 c-102 -260 -151 -422 -199 -660 -98 -479 -113
-1055 -39 -1485 76 -444 220 -805 457 -1145 291 -417 734 -729 1232 -868 277
-78 456 -96 848 -89 545 10 926 80 1367 252 266 103 705 355 730 419 5 11 32
215 60 451 29 237 92 754 140 1150 49 395 87 722 84 725 -9 8 -1737 11 -1745
2 -8 -7 -43 -287 -54 -427 -6 -73 -5 -83 17 -115 45 -66 35 -65 536 -68 l454
-3 -6 -37 c-3 -20 -24 -190 -46 -377 -68 -568 -109 -908 -115 -943 -6 -31 -14
-37 -168 -112 -89 -43 -234 -103 -322 -133 -258 -88 -429 -120 -732 -138 -491
-28 -848 57 -1179 282 -399 272 -660 728 -755 1324 -27 169 -37 596 -20 812
54 662 269 1252 613 1684 314 394 754 666 1253 774 178 38 295 49 540 49 191
-1 251 -4 355 -23 334 -58 582 -161 851 -353 166 -119 256 -168 307 -168 60 0
111 19 153 57 56 51 299 369 299 391 0 23 -150 169 -280 274 -361 289 -754
442 -1305 509 -128 16 -544 15 -700 0 -607 -61 -1162 -281 -1622 -643 -69 -53
-113 -82 -113 -73 0 8 58 491 130 1073 275 2241 460 3762 460 3777 0 13 -42
15 -362 15 -421 0 -417 0 -486 -92 -46 -61 -2368 -3774 -2450 -3918 -30 -52
-75 -138 -100 -190 l-45 -95 -9 40 c-45 192 -114 383 -495 1375 -892 2319
-1065 2766 -1086 2804 -42 76 -45 76 -455 76 -281 0 -363 -3 -367 -12z"/>
<path d="M6884 3949 c-75 -9 -138 -42 -197 -101 -79 -80 -101 -132 -101 -248
0 -174 68 -323 277 -605 119 -160 248 -366 308 -489 l61 -126 48 0 47 0 27 63
c58 133 180 330 347 557 205 280 269 420 272 595 1 78 -2 98 -25 148 -50 106
-163 192 -273 206 -147 19 -270 -32 -357 -148 l-41 -55 -16 25 c-36 55 -107
120 -157 145 -61 30 -145 42 -220 33z m158 -140 c73 -37 118 -99 175 -239 9
-23 16 -25 63 -24 52 0 54 2 65 35 38 108 109 199 183 235 57 27 150 23 206
-10 142 -83 161 -236 53 -451 -33 -65 -140 -227 -271 -409 -89 -121 -184 -271
-213 -332 -9 -19 -20 -34 -24 -34 -4 0 -26 35 -50 78 -51 94 -128 210 -270
407 -181 253 -242 373 -255 503 -8 75 7 128 52 180 75 88 186 112 286 61z"/>
<path d="M1059 3715 c-134 -27 -246 -109 -283 -206 -10 -25 -20 -76 -24 -115
l-7 -69 -97 -5 c-107 -6 -123 -14 -134 -67 -5 -27 -1 -37 24 -63 29 -29 33
-30 121 -30 l91 0 0 -255 0 -255 -95 0 c-100 0 -147 -13 -159 -45 -13 -35 -6
-72 20 -96 l26 -24 336 -3 c185 -2 352 0 370 3 61 11 91 71 62 124 -16 31 -39
36 -215 41 l-170 5 0 250 0 250 153 5 c147 5 155 6 173 29 25 30 24 72 -2 105
-20 26 -21 26 -164 26 -102 0 -145 4 -153 13 -14 17 2 120 25 159 22 37 71 64
134 73 l46 7 6 -48 c6 -58 33 -84 86 -84 71 0 97 51 89 175 -6 92 -24 109
-121 112 -39 1 -102 -4 -138 -12z"/>
<path d="M1942 3360 c-57 -12 -140 -55 -179 -93 -95 -90 -76 -247 29 -247 22
0 47 4 57 10 21 11 51 79 51 115 0 40 39 57 143 62 75 4 98 1 127 -14 41 -21
70 -73 70 -124 l0 -36 -119 -7 c-282 -16 -414 -94 -428 -254 -11 -115 45 -220
136 -259 93 -40 231 -32 364 19 72 27 81 29 89 14 16 -29 87 -58 144 -58 62
-1 151 38 184 79 38 49 19 124 -36 137 -19 5 -38 -1 -73 -24 -83 -53 -81 -58
-81 168 0 221 -10 303 -44 371 -56 109 -122 144 -281 147 -60 2 -129 -1 -153
-6z m298 -555 l0 -74 -42 -25 c-61 -35 -142 -56 -215 -56 -80 0 -113 26 -113
87 0 50 20 78 72 98 39 14 204 41 271 44 l27 1 0 -75z"/>
<path d="M3323 3359 c-51 -9 -123 -40 -163 -69 -29 -20 -30 -20 -30 -3 0 33
-37 63 -78 63 -59 0 -212 -37 -233 -56 -30 -27 -26 -87 8 -114 24 -18 36 -21
80 -15 l53 6 0 -259 0 -259 -50 -5 c-62 -6 -90 -29 -90 -75 0 -80 34 -93 238
-93 100 0 153 4 177 14 58 24 71 76 32 122 -18 21 -35 28 -75 32 l-52 5 0 201
c0 196 1 203 23 234 54 73 138 113 236 115 76 1 104 -11 131 -56 18 -29 20
-52 20 -264 l0 -233 -55 0 c-60 0 -109 -19 -119 -45 -13 -35 -6 -72 20 -96 25
-24 27 -24 230 -24 190 0 205 1 223 20 33 33 37 77 9 110 -19 22 -35 29 -76
33 l-52 5 0 227 c0 253 -10 312 -65 384 -64 84 -203 123 -342 95z"/>
</g>
</svg>
